<?xml version="1.0" encoding="UTF-8"?>
<svg version="1.1" xmlns="http://www.w3.org/2000/svg" width="1111" height="1473">
<path d="M0 0 C4.49255165 2.71923686 7.98690748 6.26756097 11.64935309 9.9977942 C12.50039403 10.84426431 13.35143498 11.69073443 14.22826505 12.56285515 C16.57775951 14.90474079 18.91556916 17.25725996 21.24905267 19.61503416 C23.79432846 22.18118357 26.35423702 24.73266758 28.91230065 27.28605806 C33.39027592 31.75983574 37.85892201 36.24276362 42.3215428 40.73185544 C48.95772661 47.407292 55.6083073 54.06824519 62.26197825 60.72624623 C73.45702294 71.92931109 84.64067121 83.14368635 95.81815344 94.36427122 C111.08346839 109.68818726 126.36470732 124.99614797 141.65014732 140.29998654 C148.77300721 147.43147422 155.89505906 154.56376878 163.01687628 161.6962977 C163.72980084 162.41029356 164.44272539 163.12428943 165.17725372 163.85992153 C182.14216579 180.8507233 199.09897221 197.84960794 216.0546189 214.8496552 C217.16730397 215.96524648 217.16730397 215.96524648 218.30246753 217.10337496 C225.06551238 223.88408969 231.82849195 230.66486953 238.59140697 237.44571375 C255.14418075 254.04234012 271.69808051 270.63784308 288.25286108 287.2324677 C288.99424909 287.97564559 289.73563709 288.71882348 290.4994914 289.48452191 C307.42675824 306.45258159 324.35597161 323.41869396 341.2906037 340.37940317 C342.00238499 341.09228283 342.71416628 341.8051625 343.44751671 342.53964458 C350.55360269 349.65662288 357.65998261 356.77330751 364.76682427 363.8895312 C380.03387647 379.17690563 395.2951095 394.47002713 410.54474621 409.77477533 C421.66049165 420.93055665 432.78298126 432.07957357 443.91258401 443.22153054 C450.52463815 449.84141934 457.13092841 456.46694422 463.72919502 463.10057618 C468.13787584 467.53180086 472.55378877 471.95572975 476.97561917 476.37383261 C479.49429011 478.89080967 482.00968243 481.41083708 484.51623833 483.93988417 C487.21936185 486.667128 489.93793616 489.37863209 492.65812689 492.08885866 C493.42956665 492.87223571 494.20100642 493.65561277 494.99582314 494.46272852 C501.82986203 501.22511601 509.24375907 507.36470239 519.21233374 507.7703095 C531.26776425 506.96018457 539.31941345 498.24228086 547.37202269 490.1200934 C548.2173792 489.27554659 549.06273571 488.43099979 549.93370908 487.56086066 C552.27101257 485.22378916 554.60374444 482.88232085 556.93464187 480.5388707 C559.47472403 477.98736898 562.02069913 475.44175866 564.56593674 472.89540159 C569.02335658 468.43443251 573.47707473 463.9697947 577.92838103 459.50272565 C584.5477155 452.86001794 591.17286634 446.2231342 597.79932497 439.58753409 C608.26505909 429.10714836 618.72726827 418.62325228 629.18698439 408.13686064 C645.78907378 391.49244825 662.39992578 374.85680355 679.0135611 358.22391655 C685.40710843 351.82289062 691.80038558 345.42159484 698.19368178 339.02031808 C698.90395377 338.30916279 699.61422576 337.5980075 700.34602115 336.86530205 C717.24906668 319.94115483 734.14964717 303.01454695 751.0492478 286.08695989 C752.15829701 284.97608133 752.15829701 284.97608133 753.28975125 283.84276078 C770.54314899 266.56084176 787.79483436 249.27721607 805.04308325 231.99015813 C805.78511694 231.24645598 806.52715064 230.50275383 807.2916702 229.73651525 C811.03344211 225.98631687 814.77519392 222.23609843 818.51693834 218.48587263 C819.2564585 217.74467629 819.99597866 217.00347995 820.75790852 216.23982312 C822.25056155 214.74378525 823.74321289 213.24774571 825.23586255 211.75170449 C849.89216226 187.03948288 874.55688279 162.33569212 899.23116805 137.641428 C902.7148839 134.15487082 906.19848878 130.66820278 909.68201834 127.18145948 C910.3675979 126.49524981 911.05317745 125.80904014 911.75953215 125.10203623 C922.7959601 114.05491041 933.823224 102.99868026 944.84690911 91.93884012 C955.92271095 80.8270171 967.00736779 69.7240929 978.10121803 58.63028847 C984.69258908 52.0383705 991.27683539 45.439516 997.85114477 38.83058092 C1002.24338271 34.41657982 1006.64464226 30.01171362 1011.05333174 25.61414452 C1013.56488083 23.10840625 1016.0723104 20.59889785 1018.56879042 18.07813822 C1021.26029203 15.36064005 1023.97098515 12.6628153 1026.68377501 9.96655946 C1027.45257778 9.18404993 1028.22138054 8.4015404 1029.01348037 7.59531846 C1034.83856611 1.85547511 1041.04088345 -2.5820919 1049.22795874 -4.02265925 C1057.83921566 -3.83898125 1062.19659852 -2.85089446 1068.40373999 3.356247 C1074.31628101 11.89658403 1074.80996754 21.20215285 1074.78023982 31.31252223 C1074.78176637 32.15804107 1074.78329292 33.00355991 1074.78486572 33.87470054 C1074.78876314 36.70849856 1074.78555062 39.54224319 1074.78237444 42.37604146 C1074.78372111 44.436775 1074.78550501 46.4975083 1074.78768668 48.55824112 C1074.79242462 54.24273408 1074.79091244 59.92721105 1074.7884089 65.61170481 C1074.78677863 71.78787249 1074.79091432 77.96403671 1074.79431808 84.14020329 C1074.79947799 94.9720583 1074.80092299 105.80390742 1074.79986197 116.63576322 C1074.79873777 128.25895247 1074.79977071 139.88213852 1074.80343443 151.50532728 C1074.80366408 152.23932976 1074.80389374 152.97333225 1074.80413035 153.72957723 C1074.80507198 156.71903924 1074.80602767 159.70850125 1074.80700154 162.69796326 C1074.81714795 193.88975232 1074.8202076 225.08153959 1074.82079365 256.27333011 C1074.8208584 259.63114543 1074.82092634 262.98896075 1074.82099706 266.34677606 C1074.82101406 267.18001452 1074.82103107 268.01325299 1074.82104859 268.8717411 C1074.82145697 287.33258103 1074.82364663 305.79342063 1074.8261529 324.25426038 C1074.82718125 331.85471422 1074.82817128 339.45516807 1074.82916915 347.05562191 C1074.82933504 348.31528135 1074.82933504 348.31528135 1074.82950427 349.60038846 C1074.83582878 397.72659991 1074.83995334 445.85281114 1074.83949572 493.97902303 C1074.83947994 495.78025118 1074.8394642 497.58147932 1074.83944851 499.38270747 C1074.83937513 507.51519444 1074.83928696 515.64768142 1074.83919463 523.78016839 C1074.8391535 527.40668892 1074.83911336 531.03320945 1074.83907331 534.65972999 C1074.83905292 536.4748692 1074.8390319 538.29000842 1074.83901025 540.10514763 C1074.83832995 597.50639563 1074.84564809 654.90763745 1074.85955054 712.30888372 C1074.86305151 726.77182137 1074.86652095 741.23475903 1074.86981493 755.69769674 C1074.87011924 757.03348079 1074.87011924 757.03348079 1074.8704297 758.39625037 C1074.87664395 785.83968644 1074.88041012 813.283122 1074.88167292 840.72655874 C1074.88171287 841.58807941 1074.88175282 842.44960009 1074.88179398 843.33722745 C1074.88264723 862.24900997 1074.88290846 881.16079247 1074.88262361 900.07257501 C1074.88252712 906.83942667 1074.88247508 913.60627833 1074.88244488 920.37312999 C1074.88243696 922.05657023 1074.88242676 923.74001047 1074.88241425 925.42345071 C1074.88223788 952.25446027 1074.88793777 979.08546455 1074.89656807 1005.91647259 C1074.90521545 1032.93790379 1074.90741144 1059.95932767 1074.90080675 1086.98075966 C1074.89989444 1090.71436059 1074.89905117 1094.44796153 1074.89824873 1098.18156248 C1074.8980086 1099.27939591 1074.8980086 1099.27939591 1074.89776362 1100.3994078 C1074.8954103 1111.98978058 1074.89976892 1123.58014073 1074.90691992 1135.17051114 C1074.9138106 1146.56648709 1074.91339921 1157.96243953 1074.90572778 1169.35841681 C1074.90182961 1175.45479888 1074.90111838 1181.55113605 1074.90918513 1187.64751502 C1074.91645916 1193.19321248 1074.91453308 1198.73882762 1074.90526127 1204.2845214 C1074.9035395 1206.2785611 1074.9051698 1208.27260723 1074.91056247 1210.26664038 C1074.95849727 1229.26321407 1073.8784011 1245.00256392 1059.99358374 1259.418747 C1047.88010649 1270.74353374 1033.85735913 1272.20489409 1017.9493075 1272.10681825 C1016.17547064 1272.11069335 1014.4016369 1272.11632055 1012.62781045 1272.12352785 C1007.76312649 1272.13823549 1002.89876577 1272.12814123 998.03409212 1272.11391586 C992.73804981 1272.10284893 987.44205188 1272.11502893 982.14601302 1272.12422334 C972.8672605 1272.13712454 963.58860349 1272.13516709 954.30985075 1272.12344366 C940.51220303 1272.10605849 926.71463041 1272.11156134 912.9169788 1272.12161057 C889.70380698 1272.13780865 866.49068363 1272.13502635 843.27751356 1272.12086301 C820.28690725 1272.1068536 797.2963187 1272.0998197 774.30570799 1272.10257154 C772.8615147 1272.10273442 771.4173214 1272.10289646 769.97312811 1272.10305765 C764.16947104 1272.10371596 758.36581397 1272.10441972 752.56215691 1272.10518299 C736.33907179 1272.10729455 720.11598674 1272.10804711 703.89290148 1272.1077662 C703.15416633 1272.10775382 702.41543119 1272.10774144 701.65431013 1272.10772869 C678.1177802 1272.10723936 654.58125579 1272.10081545 631.04472834 1272.09020906 C630.28142248 1272.08986562 629.51811661 1272.08952219 628.73168027 1272.08916834 C616.33624119 1272.08356978 603.94080228 1272.07763552 591.54536337 1272.07167928 C542.37664608 1272.04807453 493.20795982 1272.04188585 444.03923804 1272.05229192 C440.93166531 1272.05294513 437.82409259 1272.05359644 434.71651987 1272.05424742 C433.94818214 1272.05440846 433.17984441 1272.05456949 432.38822372 1272.05473541 C423.87912281 1272.05651489 415.3700219 1272.05823703 406.86092097 1272.05988985 C406.09785286 1272.06003921 405.33478475 1272.06018858 404.54859336 1272.06034247 C364.0849394 1272.06820008 323.62128819 1272.062593 283.1576352 1272.05177655 C277.36012739 1272.05022733 271.56261957 1272.04871397 265.76511175 1272.04720173 C263.60289413 1272.04663349 261.44067652 1272.046052 259.2784589 1272.04546999 C243.46307885 1272.04126819 227.64770191 1272.039072 211.83232147 1272.04215508 C210.76328095 1272.04236299 210.76328095 1272.04236299 209.67264365 1272.04257511 C206.08433243 1272.04328551 202.49602121 1272.04403171 198.90771 1272.04479247 C172.97902074 1272.05028046 147.05037146 1272.04615026 121.12168787 1272.02480392 C107.40418343 1272.01380175 93.6867359 1272.01103908 79.96922971 1272.02009245 C70.81321624 1272.02530091 61.6572516 1272.01964278 52.50124839 1272.00503911 C47.28015426 1271.99701319 42.05917541 1271.99375009 36.83808181 1272.00361167 C32.08897459 1272.01247993 27.34008923 1272.00756702 22.59100227 1271.99163223 C20.88311565 1271.98831605 19.17521003 1271.99002383 17.46733594 1271.99736072 C0.69490638 1272.06409328 -11.56034511 1268.77269514 -24.04938501 1257.059372 C-35.72613568 1244.58828455 -35.78455273 1230.45662184 -35.72378343 1214.36333375 C-35.72691427 1212.27548338 -35.73135909 1210.18763463 -35.73699653 1208.09978952 C-35.74869646 1202.3493099 -35.74167949 1196.59898104 -35.73166267 1190.84850382 C-35.7240639 1184.59741564 -35.73382782 1178.34635086 -35.74139267 1172.09526598 C-35.75223994 1161.13505668 -35.75199278 1150.17489949 -35.74425119 1139.21468931 C-35.7359957 1127.45526841 -35.73425779 1115.69587347 -35.7404632 1103.93645101 C-35.74085072 1103.19355053 -35.74123823 1102.45065005 -35.74163749 1101.68523743 C-35.74323732 1098.65949246 -35.74488344 1095.63374752 -35.74658832 1092.60800261 C-35.76245498 1064.42873139 -35.76353304 1036.24947758 -35.75514597 1008.07020383 C-35.75489758 1007.23526691 -35.75464919 1006.40032998 -35.75439328 1005.54009194 C-35.75414449 1004.7038205 -35.7538957 1003.86754906 -35.75363938 1003.00593606 C-35.74607225 977.53664025 -35.74411453 952.06735164 -35.74770731 926.59805494 C-35.74793975 924.8930416 -35.74817121 923.18802826 -35.74840172 921.48301492 C-35.7493331 914.63142046 -35.7502891 907.77982601 -35.75128101 900.92823156 C-35.75403213 881.77485019 -35.75574386 862.62146879 -35.75663942 843.46808725 C-35.75668036 842.59586458 -35.7567213 841.7236419 -35.75676347 840.82498824 C-35.75799144 813.02920829 -35.75460995 785.23343085 -35.74809068 757.43765169 C-35.74787994 756.5360229 -35.74766919 755.6343941 -35.74745206 754.70544323 C-35.74401714 740.06322413 -35.74035879 725.42100509 -35.73668154 710.77878605 C-35.7221117 652.70214174 -35.72278913 594.62551818 -35.73737329 536.54887395 C-35.7410368 521.91288224 -35.74466993 507.27689053 -35.74809068 492.64089876 C-35.74830203 491.73973219 -35.74851337 490.83856562 -35.74873112 489.91009098 C-35.75519866 462.14259819 -35.75794269 434.37510713 -35.75663942 406.60761362 C-35.75659867 405.7360435 -35.75655792 404.86447339 -35.75651593 403.96649206 C-35.75557854 384.83506708 -35.75367771 365.70364227 -35.75090791 346.57221746 C-35.74992047 339.72703401 -35.74898123 332.88185056 -35.74805578 326.0366671 C-35.74782361 324.33373392 -35.74758742 322.63080074 -35.74734719 320.92786756 C-35.74376493 295.46402788 -35.7468186 270.0001963 -35.75439328 244.53635764 C-35.75464167 243.70133792 -35.75489005 242.8663182 -35.75514597 242.00599485 C-35.75539401 241.17251271 -35.75564206 240.33903058 -35.75589762 239.48029141 C-35.76416772 211.38407029 -35.76113775 183.28787006 -35.74530374 155.19165193 C-35.74364664 152.17598195 -35.74203653 149.16031195 -35.7404632 146.14464193 C-35.74007258 145.40453483 -35.73968196 144.66442774 -35.7392795 143.90189316 C-35.73335733 132.1726082 -35.73748735 120.44334917 -35.74577021 108.71406654 C-35.75369703 97.18684407 -35.75068343 85.65967932 -35.73672795 74.13245971 C-35.72956491 67.9637191 -35.72720675 61.79507706 -35.7379459 55.62633942 C-35.74760942 50.01850014 -35.74355939 44.41084721 -35.72840392 38.80302161 C-35.72537349 36.78314198 -35.72740417 34.76324704 -35.73502173 32.74337949 C-35.74461926 30.00495674 -35.73575373 27.2671832 -35.7223075 24.52879047 C-35.72947973 23.74892196 -35.73665196 22.96905346 -35.74404152 22.16555258 C-35.66326146 14.08685659 -33.56242813 6.94570321 -27.92438501 1.04765325 C-19.81842405 -6.35605862 -9.04326543 -4.65533303 0 0 Z M-13.34626001 18.606247 C-13.34626001 185.586247 -13.34626001 352.566247 -13.34626001 524.606247 C154.62373999 524.606247 322.59373999 524.606247 495.65373999 524.606247 C494.00373999 523.286247 492.35373999 521.966247 490.65373999 520.606247 C489.35908667 519.39429793 488.08471084 518.16033054 486.83133554 516.90573972 C486.10441538 516.18055439 485.37749521 515.45536907 484.62854716 514.70820843 C483.8406529 513.91711546 483.05275864 513.12602249 482.24098879 512.31095701 C481.39223111 511.46275398 480.54347344 510.61455095 479.66899583 509.74064481 C477.31004712 507.38222792 474.95337017 505.02158158 472.5976109 502.65998138 C470.03551986 500.09265193 467.47050745 497.52824405 464.90585625 494.96347254 C460.41021598 490.46682473 455.91642798 485.96833249 451.42383963 481.46863561 C444.74333589 474.77759139 438.05994575 468.08943592 431.37591244 461.40191778 C420.13191332 450.15193293 408.89010375 438.89976261 397.64938933 427.64649587 C381.59528643 411.57457042 365.53697695 395.50685207 349.47779048 379.44000638 C343.03574415 372.99485052 336.59383406 366.54955847 330.15192515 360.10426527 C329.43622823 359.38819358 328.72053132 358.67212189 327.98314662 357.93435107 C310.94547139 340.88770234 293.90914054 323.8397103 276.87322241 306.79130559 C276.12773853 306.04527731 275.38225465 305.29924903 274.61418035 304.53061383 C257.21464364 287.11834801 239.81574955 269.70544038 222.41796118 252.29142766 C221.66933311 251.5421024 220.92070503 250.79277714 220.14939126 250.02074505 C216.37435504 246.24219114 212.59932339 242.46363267 208.82429201 238.68507392 C208.07819419 237.93827932 207.33209637 237.19148471 206.56338952 236.42205997 C205.05745536 234.91471904 203.55152194 233.40737737 202.04558929 231.90003493 C177.18585908 207.01707433 152.32274729 182.13749665 127.45588971 157.26165875 C123.94707172 153.7515641 120.43829979 150.2414234 116.92955977 146.73125082 C116.23898672 146.04039642 115.54841367 145.34954203 114.83691417 144.63775265 C103.70584661 133.50192126 92.57848811 122.36239064 81.45259025 111.2213944 C70.2803799 100.03413776 59.10466412 88.85039327 47.9252839 77.67030136 C41.27752162 71.02188364 34.63260738 64.37064787 27.99165381 57.71542894 C23.56104368 53.27584339 19.12684964 48.83985952 14.68967121 44.40683876 C12.15799579 41.8773237 9.62796773 39.34621685 7.10229128 36.81071071 C4.38711217 34.08503425 1.66430923 31.36705888 -1.05934995 28.64985471 C-1.84958538 27.85407941 -2.63982081 27.05830411 -3.45400277 26.2384144 C-4.17841942 25.51823611 -4.90283606 24.79805783 -5.64920473 24.05605596 C-6.27138461 23.43334038 -6.89356448 22.8106248 -7.53459829 22.16903906 C-9.553979 20.29772558 -9.553979 20.29772558 -13.34626001 18.606247 Z M1026.95470291 41.18027138 C1024.65602975 43.47945404 1022.35880959 45.78007543 1020.06240178 48.08152038 C1017.54606478 50.60223917 1015.0267692 53.11999837 1012.50786209 55.63814842 C1008.10334919 60.04213092 1003.70067808 64.44794778 999.29923826 68.8550015 C992.75430586 75.40825813 986.20646326 81.95860125 979.65801736 88.50834674 C968.63896833 99.5297255 957.62217563 110.55335697 946.6066075 121.5782147 C931.56766741 136.62977646 916.52543105 151.67804075 901.4823209 166.72543466 C894.4693317 173.74042972 887.45650335 180.75558557 880.44371706 187.77078348 C879.74180652 188.47293503 879.03989599 189.17508658 878.31671543 189.89851545 C861.6251026 206.59593446 844.93506582 223.29492857 828.24529272 239.99418645 C827.51537339 240.72451943 826.78545406 241.45485241 826.03341596 242.20731669 C814.92763039 253.31939991 803.82192695 264.43156522 792.71623999 275.543747 C780.86073792 287.4061811 769.00520332 299.26858269 757.1495896 311.1309052 C756.41900178 311.86190762 755.68841395 312.59291003 754.93568711 313.34606403 C738.25996447 330.03123267 721.583793 346.71595238 704.90621096 363.39926248 C704.20561546 364.10009897 703.50501996 364.80093547 702.78319429 365.52300943 C695.78981623 372.51877259 688.79635959 379.5144572 681.80278554 386.51002443 C666.77344375 401.54368449 651.74548515 416.57872351 636.72030994 431.61654788 C625.77451417 442.57151703 614.82701437 453.52478073 603.87772102 464.47625415 C597.36948517 470.98590705 590.86267778 477.49698048 584.35786619 484.01005513 C580.01647393 488.35669248 575.67328283 492.70152677 571.32860981 497.04488483 C568.85107607 499.52177581 566.37435425 501.99946433 563.89982957 504.47936182 C561.23670996 507.14743136 558.57055383 509.8124287 555.90358835 512.47665315 C554.74683579 513.637775 554.74683579 513.637775 553.5667145 514.82235386 C552.85474489 515.5323324 552.14277528 516.24231095 551.40923083 516.97380399 C550.80000372 517.58341082 550.1907766 518.19301766 549.56308806 518.82109742 C547.36889392 520.87256452 544.99933851 522.72976818 542.65373999 524.606247 C710.95373999 524.606247 879.25373999 524.606247 1052.65373999 524.606247 C1052.67436499 442.044372 1052.69498999 359.482497 1052.71623999 274.418747 C1052.72534399 248.30854436 1052.734448 222.19834173 1052.74382788 195.29692083 C1052.74717143 171.97882855 1052.74717143 171.97882855 1052.74918371 148.66073614 C1052.75018052 137.55262653 1052.75450053 126.44452215 1052.76041342 115.33641447 C1052.76635755 104.01704463 1052.76850007 92.69767979 1052.76718494 81.37830803 C1052.76658037 75.23130191 1052.76756429 69.08430727 1052.77295512 62.93730324 C1052.7777946 57.38546998 1052.77808092 51.83365639 1052.7746411 46.28182226 C1052.7742149 44.26851727 1052.7755016 42.25521109 1052.77862257 40.24190848 C1052.78261085 37.50984432 1052.78048767 34.77785178 1052.77678782 32.04578882 C1052.77941484 31.25511238 1052.78204187 30.46443595 1052.7847485 29.64979963 C1052.77301959 25.84327814 1052.57728703 22.30660814 1051.65373999 18.606247 C1045.22988461 18.606247 1031.33771164 36.80538286 1026.95470291 41.18027138 Z M-13.34626001 546.606247 C-13.46105737 665.36768796 -13.46105737 665.36768796 -13.53891987 784.12913924 C-13.54708487 801.32084313 -13.55543665 818.51254692 -13.56436399 835.70425043 C-13.56544335 837.78377253 -13.56651683 839.86329464 -13.56758437 841.94281674 C-13.58465786 875.10642336 -13.61467753 908.27000274 -13.65144889 941.43359289 C-13.68916617 975.51211206 -13.71379875 1009.59061616 -13.72191997 1043.66915585 C-13.72307262 1048.48028873 -13.72437517 1053.29142156 -13.72576898 1058.10255437 C-13.72603868 1059.04947307 -13.72630837 1059.99639176 -13.72658623 1060.97200496 C-13.7313168 1076.22714888 -13.74987901 1091.48224625 -13.77358815 1106.73737116 C-13.79711795 1122.06643803 -13.80613674 1137.39545867 -13.80026552 1152.72454297 C-13.79721858 1161.83668921 -13.80537535 1170.9486665 -13.82945018 1180.0607823 C-13.8444294 1186.14488413 -13.84492905 1192.22887509 -13.83358727 1198.31298452 C-13.82753794 1201.78148316 -13.82784851 1205.24966189 -13.84579274 1208.71812647 C-13.86176709 1212.45368942 -13.85324071 1216.18841627 -13.83845133 1219.92396551 C-13.84895938 1221.00192602 -13.85946743 1222.07988654 -13.87029392 1223.19051253 C-13.80264818 1230.71477367 -12.47771011 1235.95826905 -7.45172876 1241.81327825 C-6.50233423 1242.60798528 -6.50233423 1242.60798528 -5.53376001 1243.418747 C-4.9085647 1243.96144231 -4.28336939 1244.50413763 -3.63922876 1245.06327825 C2.35183171 1249.09474143 7.31199219 1250.0459298 14.3706122 1249.97539049 C15.22825203 1249.97885172 16.08589186 1249.98231295 16.96952078 1249.98587907 C19.84363935 1249.99381969 22.71725414 1249.98036427 25.5913468 1249.96701055 C27.66713841 1249.96832304 29.74292954 1249.9709542 31.81871802 1249.97479253 C37.53558419 1249.98152811 43.25228212 1249.9694721 48.96912692 1249.95446519 C55.22387614 1249.94138078 61.4786174 1249.945748 67.73337656 1249.94791894 C78.49889688 1249.94933368 89.26435049 1249.94011487 100.02985388 1249.92297368 C115.45694011 1249.89845355 130.88397557 1249.89266468 146.31108862 1249.89006048 C183.40448296 1249.8743033 220.49786247 1249.83242004 257.59123999 1249.793747 C340.44186499 1249.731872 423.29248999 1249.669997 508.65373999 1249.606247 C508.65373999 1017.616247 508.65373999 785.626247 508.65373999 546.606247 C336.39373999 546.606247 164.13373999 546.606247 -13.34626001 546.606247 Z M530.65373999 546.606247 C530.65373999 778.596247 530.65373999 1010.586247 530.65373999 1249.606247 C613.29811499 1249.688747 695.94248999 1249.771247 781.09123999 1249.856247 C807.21723364 1249.89266302 833.34322729 1249.92907903 860.26091772 1249.96659856 C883.61486717 1249.97997365 883.61486717 1249.97997365 906.96881872 1249.9880219 C918.08420048 1249.99200522 929.19949841 1250.00927072 940.31484927 1250.03294071 C951.64782183 1250.0567482 962.9807145 1250.06528075 974.31371785 1250.0600268 C980.46538687 1250.05761246 986.61687236 1250.06149547 992.7685079 1250.08310752 C998.32927392 1250.10252538 1003.88972604 1250.10357158 1009.45050627 1250.08985143 C1011.46254034 1250.08815254 1013.47459383 1250.09324905 1015.48658961 1250.10577732 C1018.2269046 1250.12184014 1020.96609153 1250.11317329 1023.70638949 1250.09843832 C1024.48816224 1250.10894641 1025.26993498 1250.11945451 1026.07539782 1250.13028104 C1032.8180413 1250.04834832 1038.50373059 1247.89667756 1043.95842749 1243.93046575 C1050.20433727 1237.42042546 1052.77960987 1230.70904079 1052.77793849 1221.62507462 C1052.78018578 1220.63911445 1052.78243307 1219.65315429 1052.78474846 1218.63731655 C1052.78212145 1217.55949672 1052.77949444 1216.48167688 1052.77678782 1215.37119585 C1052.77851858 1213.64040085 1052.77851858 1213.64040085 1052.78028432 1211.87464031 C1052.78248041 1208.66183126 1052.78017615 1205.44906114 1052.77600618 1202.23625518 C1052.77257453 1198.74483797 1052.7749423 1195.253424 1052.77658367 1191.76200616 C1052.77865886 1185.63964698 1052.77701116 1179.51729752 1052.77294546 1173.39493947 C1052.76691666 1164.29118125 1052.76660908 1155.18742916 1052.76748745 1146.08366931 C1052.7688022 1130.77056741 1052.76545671 1115.45746982 1052.75947005 1100.14436918 C1052.75355629 1084.97894461 1052.74970476 1069.81352185 1052.74861723 1054.64809614 C1052.74854849 1053.70572402 1052.74847975 1052.76335191 1052.74840893 1051.79242307 C1052.7480706 1047.00673732 1052.74776922 1042.22105158 1052.74748205 1037.43536583 C1052.74538074 1003.52414466 1052.73864087 969.61292583 1052.72917944 935.70170598 C1052.71999747 902.75411496 1052.71292956 869.80652459 1052.70867163 836.85893255 C1052.70840099 834.78765773 1052.70813028 832.71638291 1052.70785952 830.6451081 C1052.7056708 813.81556921 1052.7036282 796.9860303 1052.70162103 780.15649138 C1052.6922309 702.3064077 1052.6721612 624.45633014 1052.65373999 546.606247 C880.39373999 546.606247 708.13373999 546.606247 530.65373999 546.606247 Z " fill="#000000" transform="translate(36.34626001119614,201.39375299960375)"/>
<path d="M0 0 C1.42275299 -0.00209049 2.84550491 -0.00505611 4.26825449 -0.00880873 C8.16274099 -0.01656206 12.05712769 -0.01195531 15.95161248 -0.00525283 C20.19429423 -0.00016426 24.43696108 -0.00670526 28.67964071 -0.01173949 C36.11051495 -0.01895443 43.54136011 -0.01874891 50.97223568 -0.01364517 C62.02220784 -0.00607637 73.07215549 -0.00994968 84.12212749 -0.01606179 C103.8577343 -0.02659191 123.59332815 -0.02568105 143.32893619 -0.01990396 C160.59925033 -0.01487333 177.86955973 -0.01355923 195.13987446 -0.01594925 C196.28534834 -0.01610202 197.43082223 -0.01625479 198.61100745 -0.01641219 C203.26082039 -0.01703486 207.91063334 -0.01767166 212.56044629 -0.01833172 C256.18023785 -0.0244499 299.80002116 -0.01890242 343.41981145 -0.00813792 C382.17739528 0.00135394 420.93496598 0.00050352 459.69254971 -0.00905991 C503.23395296 -0.01976782 546.77534894 -0.02401664 590.31675333 -0.01783538 C594.95779574 -0.01719394 599.59883815 -0.01656826 604.23988056 -0.01594925 C605.3826295 -0.01579109 606.52537844 -0.01563294 607.70275614 -0.01546999 C624.96333877 -0.01319455 642.22391613 -0.01585651 659.48449802 -0.02090836 C679.10873762 -0.02662335 698.73296224 -0.02520468 718.35719997 -0.01434687 C729.34168621 -0.00846988 740.32614002 -0.00809734 751.31062542 -0.01563922 C758.64619272 -0.02012057 765.98173398 -0.01733901 773.31729742 -0.00862968 C777.49782209 -0.00386847 781.67828228 -0.00225307 785.85880495 -0.00944164 C789.66488103 -0.01591963 793.47083566 -0.01313241 797.27690296 -0.00308032 C799.28435901 -0.00012855 801.29182226 -0.00693656 803.29926738 -0.01418889 C814.06747723 0.03042523 824.7721287 0.44471025 833.62296963 7.25168228 C838.51848474 12.58053246 839.99281099 17.49325365 839.90031338 24.56418228 C838.77482053 35.47036654 830.07699987 44.10381267 822.66566753 51.46625328 C821.98639096 52.14903593 821.30711438 52.83181858 820.60725367 53.53529161 C818.337262 55.81456309 816.06025472 58.08668999 813.78318691 60.35889053 C812.13479537 62.01102003 810.48683634 63.66358116 808.83927226 65.31653583 C804.78981485 69.37693952 800.73573025 73.4326806 796.67963437 77.48645201 C791.81920685 82.34460223 786.96457608 87.20852963 782.11005974 92.07258538 C772.0460105 102.15595867 761.9751261 112.23248661 751.90198401 122.30677523 C744.12331093 130.08636789 736.34623969 137.86755841 728.57028866 145.64987183 C726.33085169 147.89110391 724.09140697 150.13232826 721.85195994 152.3735503 C721.29521034 152.930742 720.73846074 153.4879337 720.16483993 154.06200999 C704.50873764 169.73041726 688.85043179 185.39661959 673.18773174 201.05843163 C672.59743592 201.64869629 672.0071401 202.23896096 671.39895652 202.84711243 C668.40717319 205.83872955 665.41537392 208.83033073 662.42357114 211.8219284 C661.82940129 212.41605836 661.23523143 213.01018832 660.62305643 213.62232223 C659.42150133 214.82379645 658.21994488 216.02526931 657.01838706 217.22674081 C638.3201838 235.9237183 619.63012137 254.62880036 600.94621181 273.34006119 C579.94949404 294.36750335 558.94602996 315.38817538 537.93301463 336.39933193 C535.69229112 338.63990618 533.45159352 340.88050636 531.21091366 343.12112427 C530.6592067 343.67280792 530.10749974 344.22449157 529.53907439 344.79289291 C520.66388457 353.66802119 511.79512489 362.5495481 502.92858526 371.4333172 C494.01756085 380.36129908 485.09906667 389.28176513 476.17298773 398.19469608 C471.33829914 403.02264679 466.50683114 407.85371402 461.68443966 412.69395065 C457.26898484 417.1250996 452.84439032 421.54690388 448.41235492 425.96146713 C446.81129679 427.55944741 445.21360485 429.16080904 443.61965874 430.76588346 C433.5705566 440.8804788 424.70076401 449.37518817 410.62296963 453.25168228 C410.62296963 454.90168228 410.62296963 456.55168228 410.62296963 458.25168228 C403.36296963 458.25168228 396.10296963 458.25168228 388.62296963 458.25168228 C388.62296963 456.60168228 388.62296963 454.95168228 388.62296963 453.25168228 C387.74125088 453.13824478 386.85953213 453.02480728 385.95109463 452.90793228 C382.64628706 452.25628008 380.32463452 451.34239989 377.37296963 449.75168228 C376.52218838 449.30824478 375.67140713 448.86480728 374.79484463 448.40793228 C363.87591344 440.98521059 354.76040803 430.53548036 345.46507168 421.23422623 C343.83162798 419.60336962 342.19797093 417.97272668 340.56412005 416.342278 C336.09242505 411.878615 331.62383736 407.41185274 327.15578675 402.94454217 C322.82643466 398.61637231 318.49427231 394.29101609 314.16246749 389.96530132 C302.57061503 378.38945836 290.98379427 366.8085844 279.39754807 355.22713064 C273.91441728 349.74633959 268.43065515 344.26618039 262.94681808 338.78609603 C244.165204 320.01730931 225.38464236 301.24747044 206.60771465 282.47399521 C205.4305977 281.29709988 204.25348066 280.12020463 203.07636355 278.94330946 C201.89647388 277.76364042 200.71658428 276.58397131 199.53669477 275.40430212 C197.16978449 273.03783439 194.80287192 270.67136894 192.43595791 268.30490494 C191.84910846 267.71816488 191.26225902 267.13142483 190.65762625 266.52690477 C171.61350267 247.48641476 152.56323762 228.45208522 133.50928957 209.42142696 C113.35008471 189.28681777 93.19632309 169.14677622 73.04881454 149.00046301 C70.83747656 146.78929648 68.62611659 144.57815194 66.41474056 142.36702347 C65.87026566 141.82260434 65.32579077 141.27818521 64.76481663 140.71726853 C56.00581763 131.95941977 47.241894 123.20651517 38.47619902 114.45536898 C29.66913275 105.66266791 20.86764334 96.86441501 12.07177839 88.06050837 C7.30734973 83.29201668 2.54036905 78.5261467 -2.23309231 73.76669502 C-6.60277609 69.40971905 -10.9654787 65.04587728 -15.32272878 60.67646784 C-16.89998561 59.09724871 -18.47978173 57.5205608 -20.06236324 55.94667774 C-22.21452334 53.80559967 -24.35720247 51.65544863 -26.49781513 49.50283432 C-27.11291102 48.89533362 -27.72800692 48.28783292 -28.36174208 47.66192311 C-35.66954032 40.26551136 -40.61032705 32.93295407 -41.81453037 22.43918228 C-41.61520464 17.03640587 -39.56789661 12.55899156 -36.37703037 8.25168228 C-26.37240515 -0.63725347 -12.61659385 -0.04566262 0 0 Z M-18.37703037 23.25168228 C-15.88884979 27.99209193 -12.52946971 31.37982697 -8.77211189 35.11107635 C-7.75569296 36.132305 -7.75569296 36.132305 -6.71874031 37.17416453 C-4.43643297 39.46480371 -2.14704096 41.74822834 0.14236355 44.03177261 C1.79244502 45.68487329 3.44209159 47.33840818 5.09133917 48.9923408 C9.15640826 53.06664536 13.2261322 57.13625789 17.29783855 61.20392856 C22.17426666 66.07603506 27.04490092 70.95391807 31.91538454 75.83196584 C42.01302355 85.94485533 52.11743475 96.05096012 62.22393482 106.15499309 C70.0257938 113.95502059 77.8258573 121.75683945 85.62465 129.55993271 C86.74443035 130.68031545 87.86421129 131.80069759 88.98399283 132.92107914 C90.67129913 134.60929268 92.35860472 136.29750692 94.04590641 137.98572507 C109.73538329 153.68363279 125.42690813 169.37949101 141.12268639 185.07109833 C141.71453157 185.66278713 142.30637675 186.25447594 142.91615664 186.86409471 C145.91599604 189.86312831 148.91585542 192.86214192 151.91572278 195.86114755 C152.51152684 196.45678052 153.10733089 197.05241349 153.72118962 197.66609595 C154.92604975 198.87060942 156.13091081 200.07512195 157.33577281 201.27963355 C176.09256177 220.03106268 194.84268911 238.78912995 213.58756924 257.55246353 C234.6377507 278.62334353 255.69289992 299.68924122 276.75544459 320.7477634 C278.999469 322.99139245 281.24347651 325.23503841 283.48747349 327.47869492 C284.04002449 328.03115518 284.59257549 328.58361545 285.16187045 329.15281694 C293.51564035 337.50541917 301.86548775 345.86192923 310.21337605 354.22040939 C319.70158458 363.72064421 329.19498292 373.21565684 338.6954202 382.70366338 C343.54627472 387.54845535 348.39469076 392.39562798 353.23635769 397.24960327 C357.66303519 401.68705157 362.0964943 406.11760122 366.53561587 410.54259977 C368.14588328 412.15019584 369.75358634 413.76036517 371.35854327 415.37326303 C373.52962468 417.55434462 375.70961134 419.72610576 377.89221001 421.89565277 C378.52258259 422.5333347 379.15295517 423.17101662 379.80242994 423.82802224 C380.38401732 424.40235529 380.9656047 424.97668834 381.56481594 425.56842542 C382.06265879 426.06628874 382.56050165 426.56415205 383.07343065 427.07710214 C384.85621033 428.58820013 384.85621033 428.58820013 388.62296963 429.25168228 C388.62296963 294.94168228 388.62296963 160.63168228 388.62296963 22.25168228 C322.39609463 22.23105728 256.16921963 22.21043228 187.93546963 22.18918228 C166.99376308 22.18007828 146.05205654 22.17097427 124.47575283 22.16159439 C105.76807316 22.15825077 105.76807316 22.15825077 87.06039333 22.15623856 C78.70227689 22.15530371 70.34416708 22.1516258 61.98605251 22.14610672 C52.35439391 22.13975605 42.72274169 22.1368429 33.09108097 22.13823733 C28.16065106 22.13884159 23.23023545 22.13786173 18.29980814 22.13246715 C13.84559622 22.12762307 9.3914088 22.1273444 4.93719578 22.13078117 C3.32304059 22.13120692 1.70888391 22.1299241 0.09473169 22.1267997 C-2.0980784 22.12280311 -4.2907996 22.12493973 -6.48360825 22.12863445 C-7.70289023 22.12825473 -8.92217221 22.12787501 -10.17840213 22.12748379 C-13.03873418 22.23854669 -15.59875684 22.59065571 -18.37703037 23.25168228 Z M410.62296963 22.25168228 C410.62296963 156.56168228 410.62296963 290.87168228 410.62296963 429.25168228 C415.10745745 426.57827533 415.10745745 426.57827533 418.81518584 423.31016439 C419.40122261 422.72913466 419.98725937 422.14810494 420.59105483 421.54946825 C421.53636601 420.59713357 421.53636601 420.59713357 422.50077438 419.62555981 C423.18358145 418.94565962 423.86638852 418.26575943 424.56988671 417.56525621 C426.86728123 415.27518748 429.15745586 412.97803153 431.44775295 410.68086624 C433.10568947 409.02523311 434.76406189 407.3700364 436.42283362 405.71524006 C440.50906588 401.63650226 444.5906093 397.55311458 448.67021874 393.46775341 C453.5565444 388.57505631 458.44865778 383.68816191 463.34095693 378.80143905 C472.9256051 369.22732893 482.50451666 359.64749555 492.08100941 350.06522874 C500.45959939 341.68161161 508.84004091 333.2998509 517.22234058 324.91994286 C517.77792194 324.36451427 518.3335033 323.80908568 518.90592046 323.23682592 C521.16106116 320.98230788 523.41620892 318.72779691 525.67136832 316.47329759 C546.83168097 295.31910478 567.98615336 274.15908023 589.13802469 252.99644742 C607.94443215 234.18054462 626.75600874 215.3698245 645.57194424 196.56344986 C666.69988659 175.44620722 687.82460627 154.32574943 708.94410628 133.20006329 C711.19362364 130.94990446 713.4431489 128.69975353 715.6926775 126.44960594 C716.24658834 125.89553695 716.80049918 125.34146795 717.3711952 124.77060899 C725.7494958 116.39002987 734.13026828 108.01192805 742.51223087 99.63501167 C752.03697713 90.11597096 761.55816835 80.59339065 771.07462189 71.06605916 C775.9347569 66.20055264 780.79648167 61.33666101 785.66272068 56.47725868 C790.10968317 52.03621838 794.55207012 47.59065587 798.99071821 43.14130605 C800.60455455 41.52521977 802.22011177 39.91084995 803.83747873 38.2982971 C806.0210521 36.12072958 808.19848665 33.93721047 810.37437057 31.75196362 C811.3372405 30.79611719 811.3372405 30.79611719 812.31956235 29.82096073 C815.52404313 27.05184525 815.52404313 27.05184525 816.62296963 23.25168228 C812.60674255 22.29656357 808.86852925 22.12734711 804.74516487 22.12863445 C804.06210984 22.12748071 803.37905482 22.12632696 802.67530115 22.12513826 C800.38290502 22.12248834 798.09057885 22.12697937 795.7981863 22.13142776 C794.14383331 22.13099033 792.48948039 22.1301134 790.83512783 22.12883377 C786.27627708 22.12658731 781.71744976 22.13060903 777.15860198 22.13560955 C772.17178877 22.13996918 767.18497668 22.1385154 762.19816208 22.13779163 C752.51325607 22.13725946 742.82835931 22.14188176 733.14345567 22.14829296 C721.94347015 22.15548555 710.7434902 22.15628731 699.54350185 22.15707779 C669.96582298 22.16233074 640.38814616 22.17629182 610.81046963 22.18918228 C544.74859463 22.20980728 478.68671963 22.23043228 410.62296963 22.25168228 Z " fill="#000000" transform="translate(156.37703037261963,-0.2516822814941406)"/>
</svg>
